<?xml version="1.0" encoding="UTF-8" standalone="no"?>
<!DOCTYPE svg PUBLIC "-//W3C//DTD SVG 1.1//EN"
 "http://www.w3.org/Graphics/SVG/1.1/DTD/svg11.dtd">
<!-- Generated by graphviz version 2.40.1 (20161225.0304)
 -->
<!-- Title: workflow Pages: 1 -->
<svg width="512pt" height="170pt"
 viewBox="0.00 0.00 512.00 170.00" xmlns="http://www.w3.org/2000/svg" xmlns:xlink="http://www.w3.org/1999/xlink">
<g id="graph0" class="graph" transform="scale(1 1) rotate(0) translate(4 166)">
<title>workflow</title>
<polygon fill="#ffffff" stroke="transparent" points="-4,4 -4,-166 508,-166 508,4 -4,4"/>
<!-- place_cce55e4309a753985bdd21919395fdc17daa11e4 -->
<g id="node1" class="node">
<title>place_cce55e4309a753985bdd21919395fdc17daa11e4</title>
<ellipse fill="#add8e6" stroke="#333333" cx="36" cy="-68" rx="36" ry="36"/>
<text text-anchor="middle" x="36" y="-65.8" font-family="Arial" font-size="9.00" fill="#000000">order</text>
</g>
<!-- transition_4197eb0cd81150e5a79910017429267fa67f4ad0 -->
<g id="node5" class="node">
<title>transition_4197eb0cd81150e5a79910017429267fa67f4ad0</title>
<polygon fill="none" stroke="#333333" points="180,-136 108,-136 108,-64 180,-64 180,-136"/>
<text text-anchor="middle" x="144" y="-97.8" font-family="Arial" font-size="9.00" fill="#000000">prepare</text>
</g>
<!-- place_cce55e4309a753985bdd21919395fdc17daa11e4&#45;&gt;transition_4197eb0cd81150e5a79910017429267fa67f4ad0 -->
<g id="edge1" class="edge">
<title>place_cce55e4309a753985bdd21919395fdc17daa11e4&#45;&gt;transition_4197eb0cd81150e5a79910017429267fa67f4ad0</title>
<path fill="none" stroke="#333333" d="M70.7664,-78.3011C81.0334,-81.3432 92.3674,-84.7015 102.9888,-87.8485"/>
<polygon fill="#333333" stroke="#333333" points="102.5211,-89.5351 107.8123,-89.2777 103.5155,-86.1793 102.5211,-89.5351"/>
</g>
<!-- transition_4fd0653c4f2aef3b19a3c145bbdc5f4740715a09 -->
<g id="node7" class="node">
<title>transition_4fd0653c4f2aef3b19a3c145bbdc5f4740715a09</title>
<polygon fill="none" stroke="#333333" points="396,-72 324,-72 324,0 396,0 396,-72"/>
<text text-anchor="middle" x="360" y="-33.8" font-family="Arial" font-size="9.00" fill="#000000">cancel</text>
</g>
<!-- place_cce55e4309a753985bdd21919395fdc17daa11e4&#45;&gt;transition_4fd0653c4f2aef3b19a3c145bbdc5f4740715a09 -->
<g id="edge5" class="edge">
<title>place_cce55e4309a753985bdd21919395fdc17daa11e4&#45;&gt;transition_4fd0653c4f2aef3b19a3c145bbdc5f4740715a09</title>
<path fill="none" stroke="#333333" d="M71.4103,-60.8548C83.0289,-58.7118 96.0301,-56.5277 108,-55 182.054,-45.5486 268.9957,-40.2673 318.9766,-37.7882"/>
<polygon fill="#333333" stroke="#333333" points="319.0849,-39.5351 323.9933,-37.5427 318.9137,-36.0393 319.0849,-39.5351"/>
</g>
<!-- place_61b5e912059689969f9cf1b685c99a1d89fba594 -->
<g id="node2" class="node">
<title>place_61b5e912059689969f9cf1b685c99a1d89fba594</title>
<ellipse fill="none" stroke="#333333" cx="252" cy="-100" rx="36" ry="36"/>
<text text-anchor="middle" x="252" y="-97.8" font-family="Arial" font-size="9.00" fill="#000000">prepared</text>
</g>
<!-- transition_c3a71b15188728829ec565f4ad9cd36e66dfc593 -->
<g id="node6" class="node">
<title>transition_c3a71b15188728829ec565f4ad9cd36e66dfc593</title>
<polygon fill="none" stroke="#333333" points="396,-162 324,-162 324,-90 396,-90 396,-162"/>
<text text-anchor="middle" x="360" y="-123.8" font-family="Arial" font-size="9.00" fill="#000000">deliver</text>
</g>
<!-- place_61b5e912059689969f9cf1b685c99a1d89fba594&#45;&gt;transition_c3a71b15188728829ec565f4ad9cd36e66dfc593 -->
<g id="edge3" class="edge">
<title>place_61b5e912059689969f9cf1b685c99a1d89fba594&#45;&gt;transition_c3a71b15188728829ec565f4ad9cd36e66dfc593</title>
<path fill="none" stroke="#333333" d="M287.0645,-108.4415C297.1214,-110.8626 308.1816,-113.5252 318.5823,-116.0291"/>
<polygon fill="#333333" stroke="#333333" points="318.3571,-117.7748 323.6278,-117.2437 319.1763,-114.372 318.3571,-117.7748"/>
</g>
<!-- place_61b5e912059689969f9cf1b685c99a1d89fba594&#45;&gt;transition_4fd0653c4f2aef3b19a3c145bbdc5f4740715a09 -->
<g id="edge6" class="edge">
<title>place_61b5e912059689969f9cf1b685c99a1d89fba594&#45;&gt;transition_4fd0653c4f2aef3b19a3c145bbdc5f4740715a09</title>
<path fill="none" stroke="#333333" d="M283.2381,-81.4885C294.5568,-74.7811 307.5087,-67.106 319.5093,-59.9945"/>
<polygon fill="#333333" stroke="#333333" points="320.4734,-61.4574 323.8827,-57.4028 318.6891,-58.4464 320.4734,-61.4574"/>
</g>
<!-- place_f818910a3e181b24a8117b365fcae3816b725add -->
<g id="node3" class="node">
<title>place_f818910a3e181b24a8117b365fcae3816b725add</title>
<ellipse fill="none" stroke="#333333" cx="468" cy="-126" rx="36" ry="36"/>
<text text-anchor="middle" x="468" y="-123.8" font-family="Arial" font-size="9.00" fill="#000000">delivered</text>
</g>
<!-- place_140e7351379dcf91c8a2461ed5cf53e1b9d1414b -->
<g id="node4" class="node">
<title>place_140e7351379dcf91c8a2461ed5cf53e1b9d1414b</title>
<ellipse fill="none" stroke="#333333" cx="468" cy="-36" rx="36" ry="36"/>
<text text-anchor="middle" x="468" y="-33.8" font-family="Arial" font-size="9.00" fill="#000000">canceled</text>
</g>
<!-- transition_4197eb0cd81150e5a79910017429267fa67f4ad0&#45;&gt;place_61b5e912059689969f9cf1b685c99a1d89fba594 -->
<g id="edge2" class="edge">
<title>transition_4197eb0cd81150e5a79910017429267fa67f4ad0&#45;&gt;place_61b5e912059689969f9cf1b685c99a1d89fba594</title>
<path fill="none" stroke="#333333" d="M180.2629,-100C189.969,-100 200.5352,-100 210.5004,-100"/>
<polygon fill="#333333" stroke="#333333" points="210.649,-101.7501 215.649,-100 210.649,-98.2501 210.649,-101.7501"/>
</g>
<!-- transition_c3a71b15188728829ec565f4ad9cd36e66dfc593&#45;&gt;place_f818910a3e181b24a8117b365fcae3816b725add -->
<g id="edge4" class="edge">
<title>transition_c3a71b15188728829ec565f4ad9cd36e66dfc593&#45;&gt;place_f818910a3e181b24a8117b365fcae3816b725add</title>
<path fill="none" stroke="#333333" d="M396.2629,-126C405.969,-126 416.5352,-126 426.5004,-126"/>
<polygon fill="#333333" stroke="#333333" points="426.649,-127.7501 431.649,-126 426.649,-124.2501 426.649,-127.7501"/>
</g>
<!-- transition_4fd0653c4f2aef3b19a3c145bbdc5f4740715a09&#45;&gt;place_140e7351379dcf91c8a2461ed5cf53e1b9d1414b -->
<g id="edge7" class="edge">
<title>transition_4fd0653c4f2aef3b19a3c145bbdc5f4740715a09&#45;&gt;place_140e7351379dcf91c8a2461ed5cf53e1b9d1414b</title>
<path fill="none" stroke="#333333" d="M396.2629,-36C405.969,-36 416.5352,-36 426.5004,-36"/>
<polygon fill="#333333" stroke="#333333" points="426.649,-37.7501 431.649,-36 426.649,-34.2501 426.649,-37.7501"/>
</g>
</g>
</svg>
